<?xml version="1.0" encoding="utf-8"?>
<!-- Generator: Adobe Illustrator 21.1.0, SVG Export Plug-In . SVG Version: 6.00 Build 0)  -->
<svg version="1.1" id="Laag_1" xmlns="http://www.w3.org/2000/svg" xmlns:xlink="http://www.w3.org/1999/xlink" x="0px" y="0px"
	 viewBox="0 0 10 10" style="enable-background:new 0 0 10 10;" xml:space="preserve">
<style type="text/css">
	.st0{fill:#922996;}
	.st1{fill:none;}
	.st2{fill:#D4D4D4;}
</style>
<g id="Symbol_156_56" transform="translate(-683 -700)">
	<path id="Path_36" class="st0" d="M703.1,705.2l-4.5,4.8l-1.3-1.4l3.2-3.4l-3.2-3.4l1.3-1.4L703.1,705.2z"/>
	
		<rect id="Rectangle_1467" x="683" y="700" transform="matrix(1.133060e-03 -1 1 1.133060e-03 -17.7791 1392.2008)" class="st1" width="10" height="10"/>
	<g>
		<g>
			<g>
				<path class="st2" d="M689.8,704.9l-3.3-3.3c-0.1-0.1-0.2-0.1-0.3,0c-0.1,0.1-0.1,0.2,0,0.3l3.1,3.1l-3.1,3.1
					c-0.1,0.1-0.1,0.2,0,0.3c0,0,0.1,0.1,0.1,0.1s0.1,0,0.1-0.1l3.3-3.3C689.9,705.1,689.9,704.9,689.8,704.9z"/>
			</g>
		</g>
	</g>
</g>
</svg>
