<?xml version="1.0" encoding="utf-8"?>
<!-- Generator: Adobe Illustrator 21.1.0, SVG Export Plug-In . SVG Version: 6.00 Build 0)  -->
<svg version="1.1" id="Laag_1" xmlns="http://www.w3.org/2000/svg" xmlns:xlink="http://www.w3.org/1999/xlink" x="0px" y="0px"
	 viewBox="0 0 9.8 9.8" style="enable-background:new 0 0 9.8 9.8;" xml:space="preserve">
<style type="text/css">
	.st0{fill:#DB0029;}
	.st1{fill:none;stroke:#DB0029;stroke-width:0.8;}
	.st2{fill:#FFFFFF;}
</style>
<g id="Group_359" transform="translate(-297.555 -15.428)">
	<g id="Group_356" transform="translate(297.555 15.428)">
		<g id="Ellipse_23">
			<circle class="st0" cx="4.9" cy="4.9" r="4.9"/>
			<circle class="st1" cx="4.9" cy="4.9" r="4.5"/>
		</g>
	</g>
	<g id="Group_357" transform="translate(301.892 16.92)">
		<path id="Path_401" class="st2" d="M0.6,4.5L0.6,4.5c-0.2,0-0.4-0.1-0.4-0.3c0,0,0,0,0,0V0.4C0.2,0.2,0.4,0,0.6,0c0,0,0,0,0,0l0,0
			C0.8,0,1,0.1,1,0.3c0,0,0,0,0,0v3.8C1,4.4,0.8,4.5,0.6,4.5C0.6,4.5,0.6,4.5,0.6,4.5z"/>
		<rect id="Rectangle_448" x="0.2" y="1.8" class="st2" width="0.8" height="1.5"/>
		<circle id="Ellipse_26" class="st2" cx="0.6" cy="6.2" r="0.6"/>
	</g>
</g>
</svg>
