<?xml version="1.0" encoding="utf-8"?>
<!-- Generator: Adobe Illustrator 21.1.0, SVG Export Plug-In . SVG Version: 6.00 Build 0)  -->
<svg version="1.1" id="Laag_1" xmlns="http://www.w3.org/2000/svg" xmlns:xlink="http://www.w3.org/1999/xlink" x="0px" y="0px"
	 viewBox="0 0 9.8 9.8" style="enable-background:new 0 0 9.8 9.8;" xml:space="preserve">
<style type="text/css">
	.st0{fill:none;}
	.st1{fill:none;stroke:#7F0067;stroke-width:0.8;}
	.st2{fill:#7F0067;}
</style>
<g id="Group_354" transform="translate(-298.318 -15.428)">
	<g id="Group_351" transform="translate(298.318 15.428)">
		<g id="Ellipse_23">
			<circle class="st0" cx="4.9" cy="4.9" r="4.9"/>
			<circle class="st1" cx="4.9" cy="4.9" r="4.5"/>
		</g>
	</g>
	<g id="Group_353" transform="translate(303.212 15.428)">
		<g id="Path_403" transform="translate(-3.786)">
			<path class="st2" d="M5.3,9.3C4.8,7.6,4.7,7.3,4.7,7.2c0,0-0.1-0.2-0.7-2.3V4.8V0.2c2.5,0.1,4.5,2.2,4.5,4.7
				C8.5,6.8,7.3,8.5,5.3,9.3z"/>
			<path class="st2" d="M4.2,0.4v4.3v0.2c0.7,2.2,0.7,2.2,0.7,2.3c0,0,0,0,0,0c0,0,0.1,0.3,0.6,1.9c1.8-0.8,2.8-2.4,2.8-4.1
				C8.3,2.5,6.5,0.6,4.2,0.4 M3.8,0c2.7,0,4.9,2.2,4.9,4.9c0,2.1-1.3,3.8-3.5,4.7C3.8,5,5.2,9.5,3.8,5c0-0.2,0-0.2,0-0.2
				c0,0.1,0,0.1,0,0.1s0-0.1,0-0.1C3.8,4.5,3.8,3.4,3.8,0z"/>
		</g>
	</g>
</g>
</svg>
