<svg xmlns="http://www.w3.org/2000/svg" xmlns:xlink="http://www.w3.org/1999/xlink" viewBox="0 0 44.944 44.941">
  <defs>
    <style>
      .cls-1 {
        fill: none;
      }

      .cls-2 {
        clip-path: url(#clip-path);
      }

      .cls-3 {
        fill: #922996;
      }

      .cls-4 {
        fill: #fff;
      }
    </style>
    <clipPath id="clip-path">
      <path id="Path_665" data-name="Path 665" class="cls-1" d="M0,13.2H44.944V-31.746H0Z" transform="translate(0 31.746)"/>
    </clipPath>
  </defs>
  <g id="Group_775" data-name="Group 775" transform="translate(0 31.746)">
    <g id="Group_774" data-name="Group 774" class="cls-2" transform="translate(0 -31.746)">
      <g id="Group_768" data-name="Group 768">
        <path id="Path_659" data-name="Path 659" class="cls-3" d="M13.2,6.6A22.472,22.472,0,0,1-9.276,29.068,22.472,22.472,0,0,1-31.748,6.6,22.472,22.472,0,0,1-9.276-15.873,22.472,22.472,0,0,1,13.2,6.6" transform="translate(31.748 15.873)"/>
      </g>
      <g id="Group_769" data-name="Group 769" transform="translate(30.599 28.789)">
        <path id="Path_660" data-name="Path 660" class="cls-4" d="M1.752.435h.361V1.5A1.786,1.786,0,0,1,3.783.375v.4H3.745A1.679,1.679,0,0,0,2.113,2.657V4.2H1.752ZM.141-.549h.45v-.5H.141ZM.183,4.2H.547V.435H.183Zm-4.4-1.093V3.091c0-.78.672-1.225,1.648-1.225a4.641,4.641,0,0,1,1.249.163V1.866A1.086,1.086,0,0,0-2.561.715a2.5,2.5,0,0,0-1.181.3L-3.876.7A3.021,3.021,0,0,1-2.538.375,1.614,1.614,0,0,1-1.349.79,1.421,1.421,0,0,1-.964,1.855V4.2h-.354V3.576A1.725,1.725,0,0,1-2.76,4.29,1.309,1.309,0,0,1-4.214,3.109m2.9-.316V2.361a5.024,5.024,0,0,0-1.277-.167c-.8,0-1.243.351-1.243.879v.014c0,.544.517.861,1.094.861A1.29,1.29,0,0,0-1.312,2.793" transform="translate(4.214 1.046)"/>
      </g>
      <g id="Group_770" data-name="Group 770" transform="translate(1.976 17.928)">
        <path id="Path_661" data-name="Path 661" class="cls-4" d="M2.484,1.543s-.253-.023-.316-.037-.208-.059-.212-.123h0c0-.065.15-.112.212-.125s.316-.037.316-.037L7.851.979l1.2-3.933a.16.16,0,0,1,.006-.021.536.536,0,0,0,.021-.151.551.551,0,0,0-.551-.552H5.848a.549.549,0,0,0-.527.388.22.22,0,0,0-.011.051L4.378.313,3.314-3.258l-.038-.12a.549.549,0,0,0-.5-.334H.332a.547.547,0,0,0-.522.386L-1.262.273l-.892-3.512c-.006-.017-.011-.034-.016-.051a.55.55,0,0,0-.525-.388H-5.425a.551.551,0,0,0-.551.552.447.447,0,0,0,.025.16L-3.324,5.8l.01.037a.556.556,0,0,0,.522.369H-.207a.55.55,0,0,0,.524-.386L1.543,2,2.723,5.79a.171.171,0,0,1,0,.02l.014.034a.2.2,0,0,0,.007.023.553.553,0,0,0,.508.338h2.6a.55.55,0,0,0,.512-.354L6.4,5.773a.021.021,0,0,1,0-.008L7.621,1.74Z" transform="translate(5.976 3.712)"/>
      </g>
      <g id="Group_771" data-name="Group 771" transform="translate(16.846 17.729)">
        <path id="Path_662" data-name="Path 662" class="cls-4" d="M1.166,1.371A1.674,1.674,0,0,1,2.3.126c.024-.268.167-1.88.21-1.985a.177.177,0,0,1,.164-.116h.031a.177.177,0,0,1,.164.116c.042.1.185,1.717.21,1.985A1.674,1.674,0,0,1,4.218,1.371l3.988.177c0-.031,0-.05,0-.05A5.253,5.253,0,0,0,2.717-3.3,5.3,5.3,0,0,0-2.805,1.546Z" transform="translate(2.805 3.298)"/>
      </g>
      <g id="Group_772" data-name="Group 772" transform="translate(16.863 23.429)">
        <path id="Path_663" data-name="Path 663" class="cls-4" d="M2.031.045A1.582,1.582,0,0,1,.594,1.072,1.583,1.583,0,0,1-.844.045L-4.886-.109A5.267,5.267,0,0,0,.584,4.468a5.32,5.32,0,0,0,5.5-4.577Z" transform="translate(4.886 0.109)"/>
      </g>
      <g id="Group_773" data-name="Group 773" transform="translate(27.694 17.928)">
        <path id="Path_664" data-name="Path 664" class="cls-4" d="M4.258.01H1.579A.551.551,0,0,0,1.054.4a.28.28,0,0,0-.013.052L.112,4-.955.433-.995.31a.54.54,0,0,0-.5-.334H-3.932A.554.554,0,0,0-4.46.362l-1.069,3.6L-6.422.449c0-.016-.01-.034-.014-.052A.551.551,0,0,0-6.962.01H-9.692a.551.551,0,0,0-.551.552.531.531,0,0,0,.025.164l1.182,3.943,5.35.236s.253.023.316.037.208.061.211.125h0a0,0,0,0,0,0,0c0,.064-.149.11-.211.125s-.316.035-.316.035l-5.119.2L-7.59,9.485l.01.034a.55.55,0,0,0,.52.374h2.585a.551.551,0,0,0,.525-.386l1.225-3.818,1.181,3.79a.087.087,0,0,0,.01.02l.01.034a.07.07,0,0,0,.007.023.555.555,0,0,0,.508.338h2.6a.55.55,0,0,0,.514-.354l.024-.078a.012.012,0,0,1,0-.008L4.78.736a.128.128,0,0,0,0-.023A.537.537,0,0,0,4.807.562.55.55,0,0,0,4.258.01" transform="translate(10.243 0.024)"/>
      </g>
    </g>
  </g>
</svg>
